<svg xmlns="http://www.w3.org/2000/svg" width="1280" height="961" viewBox="0 0 1280 961"><defs><pattern id="hatch-gpt_codex" patternUnits="userSpaceOnUse" width="12" height="12"><rect width="12" height="12" fill="#FFFFFF" fill-opacity="0.96"/><path d="M-3 3 L3 -3 M0 12 L12 0 M9 15 L15 9" stroke="#2F9B60" stroke-width="2.3" stroke-opacity="0.82"/></pattern><pattern id="hatch-claude_opus_48_cc" patternUnits="userSpaceOnUse" width="12" height="12"><rect width="12" height="12" fill="#FFFFFF" fill-opacity="0.96"/><path d="M-3 3 L3 -3 M0 12 L12 0 M9 15 L15 9" stroke="#D16A1B" stroke-width="2.3" stroke-opacity="0.82"/></pattern><pattern id="hatch-minimax_m3_cc" patternUnits="userSpaceOnUse" width="12" height="12"><rect width="12" height="12" fill="#FFFFFF" fill-opacity="0.96"/><path d="M-3 3 L3 -3 M0 12 L12 0 M9 15 L15 9" stroke="#D04F5F" stroke-width="2.3" stroke-opacity="0.82"/></pattern><pattern id="hatch-kimi_k27_cc" patternUnits="userSpaceOnUse" width="12" height="12"><rect width="12" height="12" fill="#FFFFFF" fill-opacity="0.96"/><path d="M-3 3 L3 -3 M0 12 L12 0 M9 15 L15 9" stroke="#7C5CC4" stroke-width="2.3" stroke-opacity="0.82"/></pattern></defs><rect x="0.0" y="0.0" width="1280.0" height="961.0" fill="#FFFFFF"/><text x="42.0" y="68.0" font-family="Arial, Helvetica, sans-serif" font-size="58" fill="#0B1220" font-weight="800">Razavi Bench</text><text x="44.0" y="109.0" font-family="Arial, Helvetica, sans-serif" font-size="25" fill="#111827" font-weight="700">Agentic QA - MiniMax M3</text><text x="44.0" y="143.0" font-family="Arial, Helvetica, sans-serif" font-size="16" fill="#4B5563">Overall is solid, Part 1 is lighter, and Part 2 is hatched. Black lines show rollout min-to-max.</text><text x="44.0" y="170.0" font-family="Arial, Helvetica, sans-serif" font-size="16" fill="#4B5563">Judge model: MiniMax M3. Q15 uses the corrected golden.</text><rect x="32.0" y="198.0" width="1216.0" height="662.0" fill="#FFFFFF" stroke="#D9DDE3" stroke-width="1.5"/><text x="58.0" y="231.0" font-family="Arial, Helvetica, sans-serif" font-size="13" fill="#6B7280" font-weight="700">MODEL</text><text x="400.0" y="231.0" font-family="Arial, Helvetica, sans-serif" font-size="13" fill="#6B7280" font-weight="700">SCORE</text><line x1="32.0" y1="243.0" x2="1248.0" y2="243.0" stroke="#D9DDE3" stroke-width="1.2"/><line x1="400.0" y1="245.0" x2="400.0" y2="829.0" stroke="#E8ECF1" stroke-width="1.1"/><text x="400.0" y="860.0" font-family="Arial, Helvetica, sans-serif" font-size="13" fill="#6B7280" text-anchor="middle">0%</text><line x1="587.5" y1="245.0" x2="587.5" y2="829.0" stroke="#E8ECF1" stroke-width="1.1"/><text x="587.5" y="860.0" font-family="Arial, Helvetica, sans-serif" font-size="13" fill="#6B7280" text-anchor="middle">25%</text><line x1="775.0" y1="245.0" x2="775.0" y2="829.0" stroke="#E8ECF1" stroke-width="1.1"/><text x="775.0" y="860.0" font-family="Arial, Helvetica, sans-serif" font-size="13" fill="#6B7280" text-anchor="middle">50%</text><line x1="962.5" y1="245.0" x2="962.5" y2="829.0" stroke="#E8ECF1" stroke-width="1.1"/><text x="962.5" y="860.0" font-family="Arial, Helvetica, sans-serif" font-size="13" fill="#6B7280" text-anchor="middle">75%</text><line x1="1150.0" y1="245.0" x2="1150.0" y2="829.0" stroke="#E8ECF1" stroke-width="1.1"/><text x="1150.0" y="860.0" font-family="Arial, Helvetica, sans-serif" font-size="13" fill="#6B7280" text-anchor="middle">100%</text><line x1="400.0" y1="829.0" x2="1150.0" y2="829.0" stroke="#9CA3AF" stroke-width="1"/><line x1="32.0" y1="245.0" x2="1248.0" y2="245.0" stroke="#E7E9ED" stroke-width="1"/><text x="58.0" y="311.0" font-family="Arial, Helvetica, sans-serif" font-size="20" fill="#111827" font-weight="700">GPT + Codex</text><text x="58.0" y="340.0" font-family="Arial, Helvetica, sans-serif" font-size="13" fill="#6B7280">Agentic multimodal</text><text x="380.0" y="289.0" font-family="Arial, Helvetica, sans-serif" font-size="14" fill="#4B5563" text-anchor="end">Overall</text><rect x="400.0" y="271.0" width="646.3" height="26.0" fill="#2F9B60" opacity="0.96"/><line x1="1011.2" y1="284.0" x2="1071.2" y2="284.0" stroke="#111827" stroke-width="2.7" stroke-linecap="round" opacity="0.78"/><circle cx="1011.2" cy="284.0" r="8.2" fill="#2F9B60" stroke="#FFFFFF" stroke-width="2.1"/><circle cx="1071.2" cy="284.0" r="8.2" fill="#2F9B60" stroke="#FFFFFF" stroke-width="2.1"/><circle cx="1056.2" cy="284.0" r="8.2" fill="#2F9B60" stroke="#FFFFFF" stroke-width="2.1"/><text x="1170.0" y="290.0" font-family="Arial, Helvetica, sans-serif" font-size="16" fill="#111827" font-weight="800">86.2%</text><text x="380.0" y="323.0" font-family="Arial, Helvetica, sans-serif" font-size="14" fill="#4B5563" text-anchor="end">Part 1</text><rect x="400.0" y="305.0" width="654.2" height="26.0" fill="#2F9B60" opacity="0.57"/><line x1="1043.7" y1="318.0" x2="1062.5" y2="318.0" stroke="#111827" stroke-width="2.7" stroke-linecap="round" opacity="0.78"/><circle cx="1056.2" cy="318.0" r="8.2" fill="#2F9B60" stroke="#FFFFFF" stroke-width="2.1"/><circle cx="1062.5" cy="318.0" r="8.2" fill="#2F9B60" stroke="#FFFFFF" stroke-width="2.1"/><circle cx="1043.7" cy="318.0" r="8.2" fill="#2F9B60" stroke="#FFFFFF" stroke-width="2.1"/><text x="1170.0" y="324.0" font-family="Arial, Helvetica, sans-serif" font-size="16" fill="#111827" font-weight="800">87.2%</text><text x="380.0" y="357.0" font-family="Arial, Helvetica, sans-serif" font-size="14" fill="#4B5563" text-anchor="end">Part 2</text><rect x="400.0" y="339.0" width="634.4" height="26.0" fill="url(#hatch-gpt_codex)" stroke="#2F9B60" stroke-width="1.4"/><line x1="943.8" y1="352.0" x2="1084.4" y2="352.0" stroke="#111827" stroke-width="2.7" stroke-linecap="round" opacity="0.78"/><circle cx="943.8" cy="352.0" r="8.2" fill="#2F9B60" stroke="#FFFFFF" stroke-width="2.1"/><circle cx="1084.4" cy="352.0" r="8.2" fill="#2F9B60" stroke="#FFFFFF" stroke-width="2.1"/><circle cx="1075.0" cy="352.0" r="8.2" fill="#2F9B60" stroke="#FFFFFF" stroke-width="2.1"/><text x="1170.0" y="358.0" font-family="Arial, Helvetica, sans-serif" font-size="16" fill="#111827" font-weight="800">84.6%</text><line x1="32.0" y1="391.0" x2="1248.0" y2="391.0" stroke="#E7E9ED" stroke-width="1"/><text x="58.0" y="457.0" font-family="Arial, Helvetica, sans-serif" font-size="20" fill="#111827" font-weight="700">Claude Opus 4.8 + Claude Code</text><text x="58.0" y="486.0" font-family="Arial, Helvetica, sans-serif" font-size="13" fill="#6B7280">Agentic multimodal</text><text x="380.0" y="435.0" font-family="Arial, Helvetica, sans-serif" font-size="14" fill="#4B5563" text-anchor="end">Overall</text><rect x="400.0" y="417.0" width="641.2" height="26.0" fill="#D16A1B" opacity="0.96"/><line x1="1033.8" y1="430.0" x2="1045.0" y2="430.0" stroke="#111827" stroke-width="2.7" stroke-linecap="round" opacity="0.78"/><circle cx="1045.0" cy="430.0" r="8.2" fill="#D16A1B" stroke="#FFFFFF" stroke-width="2.1"/><circle cx="1033.8" cy="430.0" r="8.2" fill="#D16A1B" stroke="#FFFFFF" stroke-width="2.1"/><circle cx="1045.0" cy="430.0" r="8.2" fill="#D16A1B" stroke="#FFFFFF" stroke-width="2.1"/><text x="1170.0" y="436.0" font-family="Arial, Helvetica, sans-serif" font-size="16" fill="#111827" font-weight="800">85.5%</text><text x="380.0" y="469.0" font-family="Arial, Helvetica, sans-serif" font-size="14" fill="#4B5563" text-anchor="end">Part 1</text><rect x="400.0" y="451.0" width="683.3" height="26.0" fill="#D16A1B" opacity="0.57"/><line x1="1062.5" y1="464.0" x2="1100.0" y2="464.0" stroke="#111827" stroke-width="2.7" stroke-linecap="round" opacity="0.78"/><circle cx="1087.5" cy="464.0" r="8.2" fill="#D16A1B" stroke="#FFFFFF" stroke-width="2.1"/><circle cx="1062.5" cy="464.0" r="8.2" fill="#D16A1B" stroke="#FFFFFF" stroke-width="2.1"/><circle cx="1100.0" cy="464.0" r="8.2" fill="#D16A1B" stroke="#FFFFFF" stroke-width="2.1"/><text x="1170.0" y="470.0" font-family="Arial, Helvetica, sans-serif" font-size="16" fill="#111827" font-weight="800">91.1%</text><text x="380.0" y="503.0" font-family="Arial, Helvetica, sans-serif" font-size="14" fill="#4B5563" text-anchor="end">Part 2</text><rect x="400.0" y="485.0" width="578.1" height="26.0" fill="url(#hatch-claude_opus_48_cc)" stroke="#D16A1B" stroke-width="1.4"/><line x1="962.5" y1="498.0" x2="990.6" y2="498.0" stroke="#111827" stroke-width="2.7" stroke-linecap="round" opacity="0.78"/><circle cx="981.2" cy="498.0" r="8.2" fill="#D16A1B" stroke="#FFFFFF" stroke-width="2.1"/><circle cx="990.6" cy="498.0" r="8.2" fill="#D16A1B" stroke="#FFFFFF" stroke-width="2.1"/><circle cx="962.5" cy="498.0" r="8.2" fill="#D16A1B" stroke="#FFFFFF" stroke-width="2.1"/><text x="1170.0" y="504.0" font-family="Arial, Helvetica, sans-serif" font-size="16" fill="#111827" font-weight="800">77.1%</text><line x1="32.0" y1="537.0" x2="1248.0" y2="537.0" stroke="#E7E9ED" stroke-width="1"/><text x="58.0" y="603.0" font-family="Arial, Helvetica, sans-serif" font-size="20" fill="#111827" font-weight="700">MiniMax M3 + Claude Code</text><text x="58.0" y="632.0" font-family="Arial, Helvetica, sans-serif" font-size="13" fill="#6B7280">Agentic multimodal</text><text x="380.0" y="581.0" font-family="Arial, Helvetica, sans-serif" font-size="14" fill="#4B5563" text-anchor="end">Overall</text><rect x="400.0" y="563.0" width="525.0" height="26.0" fill="#D04F5F" opacity="0.96"/><line x1="883.8" y1="576.0" x2="955.0" y2="576.0" stroke="#111827" stroke-width="2.7" stroke-linecap="round" opacity="0.78"/><circle cx="883.8" cy="576.0" r="8.2" fill="#D04F5F" stroke="#FFFFFF" stroke-width="2.1"/><circle cx="936.2" cy="576.0" r="8.2" fill="#D04F5F" stroke="#FFFFFF" stroke-width="2.1"/><circle cx="955.0" cy="576.0" r="8.2" fill="#D04F5F" stroke="#FFFFFF" stroke-width="2.1"/><text x="1170.0" y="582.0" font-family="Arial, Helvetica, sans-serif" font-size="16" fill="#111827" font-weight="800">70.0%</text><text x="380.0" y="615.0" font-family="Arial, Helvetica, sans-serif" font-size="14" fill="#4B5563" text-anchor="end">Part 1</text><rect x="400.0" y="597.0" width="583.3" height="26.0" fill="#D04F5F" opacity="0.57"/><line x1="931.2" y1="610.0" x2="1025.0" y2="610.0" stroke="#111827" stroke-width="2.7" stroke-linecap="round" opacity="0.78"/><circle cx="931.2" cy="610.0" r="8.2" fill="#D04F5F" stroke="#FFFFFF" stroke-width="2.1"/><circle cx="993.8" cy="610.0" r="8.2" fill="#D04F5F" stroke="#FFFFFF" stroke-width="2.1"/><circle cx="1025.0" cy="610.0" r="8.2" fill="#D04F5F" stroke="#FFFFFF" stroke-width="2.1"/><text x="1170.0" y="616.0" font-family="Arial, Helvetica, sans-serif" font-size="16" fill="#111827" font-weight="800">77.8%</text><text x="380.0" y="649.0" font-family="Arial, Helvetica, sans-serif" font-size="14" fill="#4B5563" text-anchor="end">Part 2</text><rect x="400.0" y="631.0" width="437.5" height="26.0" fill="url(#hatch-minimax_m3_cc)" stroke="#D04F5F" stroke-width="1.4"/><line x1="812.5" y1="644.0" x2="850.0" y2="644.0" stroke="#111827" stroke-width="2.7" stroke-linecap="round" opacity="0.78"/><circle cx="812.5" cy="644.0" r="8.2" fill="#D04F5F" stroke="#FFFFFF" stroke-width="2.1"/><circle cx="850.0" cy="644.0" r="8.2" fill="#D04F5F" stroke="#FFFFFF" stroke-width="2.1"/><circle cx="850.0" cy="644.0" r="8.2" fill="#D04F5F" stroke="#FFFFFF" stroke-width="2.1"/><text x="1170.0" y="650.0" font-family="Arial, Helvetica, sans-serif" font-size="16" fill="#111827" font-weight="800">58.3%</text><line x1="32.0" y1="683.0" x2="1248.0" y2="683.0" stroke="#E7E9ED" stroke-width="1"/><text x="58.0" y="749.0" font-family="Arial, Helvetica, sans-serif" font-size="20" fill="#111827" font-weight="700">Kimi K2.7 + Claude Code</text><text x="58.0" y="778.0" font-family="Arial, Helvetica, sans-serif" font-size="13" fill="#6B7280">Agentic multimodal</text><text x="380.0" y="727.0" font-family="Arial, Helvetica, sans-serif" font-size="14" fill="#4B5563" text-anchor="end">Overall</text><rect x="400.0" y="709.0" width="522.5" height="26.0" fill="#7C5CC4" opacity="0.96"/><line x1="891.2" y1="722.0" x2="947.5" y2="722.0" stroke="#111827" stroke-width="2.7" stroke-linecap="round" opacity="0.78"/><circle cx="947.5" cy="722.0" r="8.2" fill="#7C5CC4" stroke="#FFFFFF" stroke-width="2.1"/><circle cx="928.8" cy="722.0" r="8.2" fill="#7C5CC4" stroke="#FFFFFF" stroke-width="2.1"/><circle cx="891.2" cy="722.0" r="8.2" fill="#7C5CC4" stroke="#FFFFFF" stroke-width="2.1"/><text x="1170.0" y="728.0" font-family="Arial, Helvetica, sans-serif" font-size="16" fill="#111827" font-weight="800">69.7%</text><text x="380.0" y="761.0" font-family="Arial, Helvetica, sans-serif" font-size="14" fill="#4B5563" text-anchor="end">Part 1</text><rect x="400.0" y="743.0" width="562.5" height="26.0" fill="#7C5CC4" opacity="0.57"/><line x1="931.2" y1="756.0" x2="993.8" y2="756.0" stroke="#111827" stroke-width="2.7" stroke-linecap="round" opacity="0.78"/><circle cx="962.5" cy="756.0" r="8.2" fill="#7C5CC4" stroke="#FFFFFF" stroke-width="2.1"/><circle cx="993.8" cy="756.0" r="8.2" fill="#7C5CC4" stroke="#FFFFFF" stroke-width="2.1"/><circle cx="931.2" cy="756.0" r="8.2" fill="#7C5CC4" stroke="#FFFFFF" stroke-width="2.1"/><text x="1170.0" y="762.0" font-family="Arial, Helvetica, sans-serif" font-size="16" fill="#111827" font-weight="800">75.0%</text><text x="380.0" y="795.0" font-family="Arial, Helvetica, sans-serif" font-size="14" fill="#4B5563" text-anchor="end">Part 2</text><rect x="400.0" y="777.0" width="462.5" height="26.0" fill="url(#hatch-kimi_k27_cc)" stroke="#7C5CC4" stroke-width="1.4"/><line x1="831.2" y1="790.0" x2="925.0" y2="790.0" stroke="#111827" stroke-width="2.7" stroke-linecap="round" opacity="0.78"/><circle cx="925.0" cy="790.0" r="8.2" fill="#7C5CC4" stroke="#FFFFFF" stroke-width="2.1"/><circle cx="831.2" cy="790.0" r="8.2" fill="#7C5CC4" stroke="#FFFFFF" stroke-width="2.1"/><circle cx="831.2" cy="790.0" r="8.2" fill="#7C5CC4" stroke="#FFFFFF" stroke-width="2.1"/><text x="1170.0" y="796.0" font-family="Arial, Helvetica, sans-serif" font-size="16" fill="#111827" font-weight="800">61.7%</text><text x="48.0" y="903.0" font-family="Arial, Helvetica, sans-serif" font-size="12" fill="#6B7280">Data notes: Q15 is overlaid with the 2026-07-19 corrected golden; all other task scores are reused byte-for-byte.</text><text x="48.0" y="928.0" font-family="Arial, Helvetica, sans-serif" font-size="11" fill="#6B7280">[1] B. Razavi, &quot;Analog Design Experiments With AI--Part 1,&quot; IEEE Solid-State Circuits Magazine, Fall 2025.</text><text x="48.0" y="947.0" font-family="Arial, Helvetica, sans-serif" font-size="11" fill="#6B7280">[2] B. Razavi, &quot;Analog Design Experiments With AI--Part 2,&quot; IEEE Solid-State Circuits Magazine, Spring 2026.</text></svg>